<svg xmlns="http://www.w3.org/2000/svg" width="800" height="500" viewBox="0 0 800 500">
  <defs>
    <linearGradient id="bg" x1="0%" y1="0%" x2="100%" y2="100%">
      <stop offset="0%" style="stop-color:#020617"/>
      <stop offset="50%" style="stop-color:#0f172a"/>
      <stop offset="100%" style="stop-color:#020617"/>
    </linearGradient>
    <linearGradient id="indigo" x1="0%" y1="0%" x2="100%" y2="0%">
      <stop offset="0%" style="stop-color:#6366f1"/>
      <stop offset="100%" style="stop-color:#818cf8"/>
    </linearGradient>
    <linearGradient id="emerald" x1="0%" y1="0%" x2="100%" y2="0%">
      <stop offset="0%" style="stop-color:#10b981"/>
      <stop offset="100%" style="stop-color:#34d399"/>
    </linearGradient>
    <linearGradient id="amber" x1="0%" y1="0%" x2="100%" y2="0%">
      <stop offset="0%" style="stop-color:#f59e0b"/>
      <stop offset="100%" style="stop-color:#fbbf24"/>
    </linearGradient>
    <filter id="glow"><feGaussianBlur stdDeviation="3" result="b"/><feMerge><feMergeNode in="b"/><feMergeNode in="SourceGraphic"/></feMerge></filter>
    <filter id="shadow"><feDropShadow dx="0" dy="3" stdDeviation="6" flood-color="#000" flood-opacity="0.4"/></filter>
  </defs>

  <rect width="800" height="500" fill="url(#bg)" rx="12"/>

  <!-- Top Bar -->
  <rect x="0" y="0" width="800" height="48" fill="#0f172a" rx="12"/>
  <rect x="0" y="20" width="800" height="28" fill="#0f172a"/>

  <!-- Logo & Nav -->
  <rect x="16" y="12" width="28" height="28" rx="6" fill="url(#indigo)"/>
  <text x="23" y="32" font-family="Arial, sans-serif" font-weight="800" font-size="16" fill="white">S</text>
  <text x="52" y="30" font-family="Arial, sans-serif" font-weight="700" font-size="15" fill="white">SyncBoard</text>

  <!-- Nav items -->
  <text x="180" y="30" font-family="Arial, sans-serif" font-size="12" fill="#94a3b8">Boards</text>
  <text x="240" y="30" font-family="Arial, sans-serif" font-size="12" fill="#6366f1">Tasks</text>
  <rect x="232" y="42" width="40" height="2" fill="#6366f1"/>
  <text x="300" y="30" font-family="Arial, sans-serif" font-size="12" fill="#94a3b8">Docs</text>
  <text x="350" y="30" font-family="Arial, sans-serif" font-size="12" fill="#94a3b8">Chat</text>

  <!-- Online users -->
  <circle cx="660" cy="24" r="14" fill="#4338ca" stroke="#6366f1" stroke-width="1.5"/>
  <text x="655" y="29" font-family="Arial, sans-serif" font-weight="600" font-size="11" fill="white">AK</text>
  <circle cx="685" cy="24" r="14" fill="#0f766e" stroke="#14b8a6" stroke-width="1.5"/>
  <text x="680" y="29" font-family="Arial, sans-serif" font-weight="600" font-size="11" fill="white">JD</text>
  <circle cx="710" cy="24" r="14" fill="#9333ea" stroke="#a855f7" stroke-width="1.5"/>
  <text x="705" y="29" font-family="Arial, sans-serif" font-weight="600" font-size="11" fill="white">SK</text>
  <!-- Online indicator -->
  <circle cx="673" cy="14" r="4" fill="#22c55e" stroke="#020617" stroke-width="1.5"/>
  <circle cx="698" cy="14" r="4" fill="#22c55e" stroke="#020617" stroke-width="1.5"/>
  <circle cx="723" cy="14" r="4" fill="#22c55e" stroke="#020617" stroke-width="1.5"/>

  <rect x="740" y="12" width="44" height="28" rx="6" fill="url(#indigo)"/>
  <text x="750" y="30" font-family="Arial, sans-serif" font-size="12" fill="white">+ ✉</text>

  <!-- Sidebar -->
  <rect x="0" y="48" width="200" height="452" fill="#0c1322"/>

  <text x="20" y="80" font-family="Arial, sans-serif" font-weight="600" font-size="13" fill="#64748b">WORKSPACES</text>

  <rect x="10" y="90" width="180" height="36" rx="8" fill="rgba(99,102,241,0.1)" stroke="#6366f1" stroke-width="0.5"/>
  <text x="28" y="112" font-family="Arial, sans-serif" font-size="12" fill="#a5b4fc">🚀 Product Launch</text>

  <rect x="10" y="132" width="180" height="36" rx="8" fill="transparent"/>
  <text x="28" y="154" font-family="Arial, sans-serif" font-size="12" fill="#64748b">📊 Q4 Planning</text>

  <rect x="10" y="174" width="180" height="36" rx="8" fill="transparent"/>
  <text x="28" y="196" font-family="Arial, sans-serif" font-size="12" fill="#64748b">🎨 Design System</text>

  <text x="20" y="240" font-family="Arial, sans-serif" font-weight="600" font-size="13" fill="#64748b">CHANNELS</text>

  <rect x="10" y="250" width="180" height="30" rx="6" fill="transparent"/>
  <text x="28" y="270" font-family="Arial, sans-serif" font-size="12" fill="#94a3b8"># general</text>
  <rect x="160" y="256" width="22" height="18" rx="9" fill="#ef4444"/>
  <text x="166" y="269" font-family="Arial, sans-serif" font-size="10" fill="white">3</text>

  <rect x="10" y="284" width="180" height="30" rx="6" fill="transparent"/>
  <text x="28" y="304" font-family="Arial, sans-serif" font-size="12" fill="#94a3b8"># engineering</text>

  <rect x="10" y="318" width="180" height="30" rx="6" fill="transparent"/>
  <text x="28" y="338" font-family="Arial, sans-serif" font-size="12" fill="#94a3b8"># design</text>

  <!-- Main Board Area -->
  <text x="224" y="78" font-family="Arial, sans-serif" font-weight="700" font-size="18" fill="white">Product Launch</text>
  <text x="224" y="96" font-family="Arial, sans-serif" font-size="12" fill="#64748b">3 members · 12 tasks · 2 in progress</text>

  <!-- Kanban Columns -->
  <!-- To Do -->
  <rect x="214" y="110" width="180" height="380" rx="10" fill="#111827"/>
  <text x="230" y="134" font-family="Arial, sans-serif" font-weight="600" font-size="13" fill="#94a3b8">📋 To Do</text>
  <rect x="303" y="122" width="22" height="18" rx="9" fill="#374151"/>
  <text x="310" y="135" font-family="Arial, sans-serif" font-size="10" fill="#94a3b8">4</text>

  <!-- Card 1 -->
  <rect x="224" y="148" width="160" height="80" rx="8" fill="#1e293b" filter="url(#shadow)"/>
  <rect x="224" y="148" width="160" height="4" rx="2" fill="#f59e0b"/>
  <text x="236" y="170" font-family="Arial, sans-serif" font-weight="500" font-size="12" fill="white">Design auth flow</text>
  <rect x="236" y="178" width="50" height="18" rx="4" fill="rgba(245,158,11,0.15)"/>
  <text x="244" y="191" font-family="Arial, sans-serif" font-size="9" fill="#fbbf24">🏷 High</text>
  <circle cx="368" cy="214" r="10" fill="#9333ea"/>
  <text x="363" y="218" font-family="Arial, sans-serif" font-size="9" fill="white">SK</text>

  <!-- Card 2 -->
  <rect x="224" y="240" width="160" height="72" rx="8" fill="#1e293b" filter="url(#shadow)"/>
  <rect x="224" y="240" width="160" height="4" rx="2" fill="#3b82f6"/>
  <text x="236" y="262" font-family="Arial, sans-serif" font-weight="500" font-size="12" fill="white">API rate limiting</text>
  <rect x="236" y="270" width="56" height="18" rx="4" fill="rgba(59,130,246,0.15)"/>
  <text x="244" y="283" font-family="Arial, sans-serif" font-size="9" fill="#60a5fa">🏷 Medium</text>

  <!-- In Progress -->
  <rect x="404" y="110" width="180" height="380" rx="10" fill="#111827"/>
  <text x="420" y="134" font-family="Arial, sans-serif" font-weight="600" font-size="13" fill="#94a3b8">⏳ In Progress</text>
  <rect x="518" y="122" width="22" height="18" rx="9" fill="#374151"/>
  <text x="525" y="135" font-family="Arial, sans-serif" font-size="10" fill="#94a3b8">2</text>

  <!-- Card 3 - with cursor -->
  <rect x="414" y="148" width="160" height="94" rx="8" fill="#1e293b" stroke="#6366f1" stroke-width="1.5" filter="url(#shadow)"/>
  <rect x="414" y="148" width="160" height="4" rx="2" fill="#ef4444"/>
  <text x="426" y="170" font-family="Arial, sans-serif" font-weight="500" font-size="12" fill="white">WebSocket service</text>
  <text x="426" y="186" font-family="Arial, sans-serif" font-size="10" fill="#64748b">Real-time sync engine</text>
  <rect x="426" y="196" width="64" height="18" rx="4" fill="rgba(239,68,68,0.15)"/>
  <text x="434" y="209" font-family="Arial, sans-serif" font-size="9" fill="#f87171">🏷 Critical</text>
  <circle cx="558" cy="228" r="10" fill="#4338ca"/>
  <text x="553" y="232" font-family="Arial, sans-serif" font-size="9" fill="white">AK</text>
  <!-- Live cursor -->
  <text x="546" y="172" font-family="Arial, sans-serif" font-size="14" fill="#6366f1">▎</text>

  <!-- Card 4 -->
  <rect x="414" y="254" width="160" height="72" rx="8" fill="#1e293b" filter="url(#shadow)"/>
  <rect x="414" y="254" width="160" height="4" rx="2" fill="#f59e0b"/>
  <text x="426" y="276" font-family="Arial, sans-serif" font-weight="500" font-size="12" fill="white">Redis caching layer</text>
  <circle cx="558" cy="312" r="10" fill="#0f766e"/>
  <text x="553" y="316" font-family="Arial, sans-serif" font-size="9" fill="white">JD</text>

  <!-- Done -->
  <rect x="594" y="110" width="180" height="380" rx="10" fill="#111827"/>
  <text x="610" y="134" font-family="Arial, sans-serif" font-weight="600" font-size="13" fill="#94a3b8">✅ Done</text>
  <rect x="690" y="122" width="22" height="18" rx="9" fill="#374151"/>
  <text x="697" y="135" font-family="Arial, sans-serif" font-size="10" fill="#94a3b8">6</text>

  <!-- Card 5 -->
  <rect x="604" y="148" width="160" height="72" rx="8" fill="#1e293b" filter="url(#shadow)" opacity="0.7"/>
  <rect x="604" y="148" width="160" height="4" rx="2" fill="#10b981"/>
  <text x="616" y="170" font-family="Arial, sans-serif" font-weight="500" font-size="12" fill="#94a3b8" text-decoration="line-through">NextAuth setup</text>
  <text x="616" y="186" font-family="Arial, sans-serif" font-size="10" fill="#475569">OAuth + JWT</text>
  <text x="730" y="206" font-family="Arial, sans-serif" font-size="12" fill="#22c55e">✓</text>

  <!-- Card 6 -->
  <rect x="604" y="232" width="160" height="72" rx="8" fill="#1e293b" filter="url(#shadow)" opacity="0.7"/>
  <rect x="604" y="232" width="160" height="4" rx="2" fill="#10b981"/>
  <text x="616" y="254" font-family="Arial, sans-serif" font-weight="500" font-size="12" fill="#94a3b8" text-decoration="line-through">PostgreSQL schema</text>
  <text x="616" y="270" font-family="Arial, sans-serif" font-size="10" fill="#475569">Prisma migrations</text>
  <text x="730" y="290" font-family="Arial, sans-serif" font-size="12" fill="#22c55e">✓</text>

  <!-- Real-time indicator -->
  <rect x="224" y="464" width="160" height="24" rx="6" fill="rgba(34,197,94,0.1)" stroke="#22c55e" stroke-width="0.5"/>
  <circle cx="238" cy="476" r="4" fill="#22c55e" filter="url(#glow)"/>
  <text x="248" y="480" font-family="Arial, sans-serif" font-size="10" fill="#4ade80">3 users editing live</text>

  <!-- WebSocket badge -->
  <rect x="414" y="464" width="120" height="24" rx="6" fill="rgba(99,102,241,0.1)" stroke="#6366f1" stroke-width="0.5"/>
  <text x="426" y="480" font-family="Arial, sans-serif" font-size="10" fill="#a5b4fc">⚡ WebSocket</text>

  <rect x="544" y="464" width="90" height="24" rx="6" fill="rgba(239,68,68,0.1)" stroke="#ef4444" stroke-width="0.5"/>
  <text x="558" y="480" font-family="Arial, sans-serif" font-size="10" fill="#fca5a5">🔄 Redis</text>
</svg>